<?xml version="1.0" encoding="utf-8"?>
<!-- Generator: Adobe Illustrator 17.0.0, SVG Export Plug-In . SVG Version: 6.00 Build 0)  -->
<!DOCTYPE svg PUBLIC "-//W3C//DTD SVG 1.1//EN" "http://www.w3.org/Graphics/SVG/1.1/DTD/svg11.dtd">
<svg version="1.1" id="Слой_1" xmlns="http://www.w3.org/2000/svg" xmlns:xlink="http://www.w3.org/1999/xlink" x="0px" y="0px"
	 width="229.75px" height="38.75px" viewBox="0 0 229.75 38.75" enable-background="new 0 0 229.75 38.75" xml:space="preserve">
<g>
	<g>
		<g>
			<path fill="#583341" d="M77.932,15.611v-3.477h-2.591v12.319h2.219v2.084h-7.639v-2.084h2.25V12.134H69.58v3.477h-2.692V9.953
				h13.728v5.657H77.932z"/>
			<path fill="#583341" d="M88.397,26.537v-1.964c-0.689,1.542-2.18,2.243-3.845,2.243c-1.71,0-3.376-0.975-3.655-2.243
				c-0.257-0.812-0.281-1.234-0.281-1.604c0-1.037,0.418-2.084,1.206-2.771c0.603-0.562,1.995-1.047,2.802-1.071
				c0.579-0.019,1.205-0.11,1.779-0.11c0.562,0,1.112,0.067,1.671,0.091c0.161-1.484-0.05-3.333-1.971-3.333
				c-1.342,0-1.988,0.922-1.969,2.219h-3.052c0.07-3.011,2.312-4.077,5.021-4.077c1.921,0,3.729,0.514,4.562,2.411
				c0.185,0.413,0.231,0.672,0.298,1.157c0.07,0.533,0.099,1.042,0.099,1.575v5.528h1.597v1.95H88.397z M86.706,20.845
				c-1.573,0-3.007,0.37-3.007,2.233c0,0.956,0.622,1.72,1.616,1.72c2.247,0,2.778-2.156,2.85-3.953H86.706z"/>
			<path fill="#583341" d="M100.341,26.58c-0.255,0.096-1.018,0.235-1.273,0.235c-0.559,0-0.876-0.096-1.412-0.235
				c-1.061-0.322-1.645-1.062-1.875-2.104c-0.118-0.509-0.094-1.599-0.094-2.156v-6.133H93.86v-1.974h1.827V12.11l3.083-1.037v3.141
				h3.076v1.974H98.77v7.708c0,0.235,0.137,0.691,0.367,0.783c1.414,0.586,1.316-1.388,1.297-2.214h1.897v0.826
				C102.331,24.755,101.87,26.095,100.341,26.58z"/>
			<path fill="#583341" d="M111.802,26.537v-1.964c-0.696,1.542-2.175,2.243-3.847,2.243c-1.71,0-3.381-0.975-3.66-2.243
				c-0.25-0.812-0.274-1.234-0.274-1.604c0-1.037,0.415-2.084,1.205-2.771c0.603-0.562,1.988-1.047,2.798-1.071
				c0.581-0.019,1.205-0.11,1.787-0.11c0.555,0,1.114,0.067,1.662,0.091c0.161-1.484-0.043-3.333-1.964-3.333
				c-1.342,0-1.993,0.922-1.964,2.219h-3.057c0.067-3.011,2.313-4.077,5.021-4.077c1.921,0,3.729,0.514,4.56,2.411
				c0.182,0.413,0.235,0.672,0.305,1.157c0.062,0.533,0.094,1.042,0.094,1.575v5.528h1.592v1.95H111.802z M110.111,20.845
				c-1.573,0-3.009,0.37-3.009,2.233c0,0.956,0.617,1.72,1.616,1.72c2.25,0,2.778-2.156,2.848-3.953H110.111z"/>
			<path fill="#583341" d="M125.04,16.83c-1.133,0-2.127,0.696-2.519,1.743c-0.305,0.836-0.305,1.96-0.305,2.819v3.179h1.971v1.964
				h-6.668v-1.964h1.616v-8.385h-1.616v-1.974h4.512v2.617c0.49-2.152,1.95-3.025,4.102-2.819v3.011
				C125.78,16.927,125.413,16.83,125.04,16.83z"/>
			<path fill="#583341" d="M140.089,26.815c-1.664,0-3.566-0.745-4.603-2.036c-1.021-1.278-1.417-2.896-1.417-4.495
				c0-1.738,0.415-3.309,1.621-4.606c1.088-1.157,2.735-1.763,4.308-1.763c3.957,0,6.09,2.757,6.09,6.483
				C146.088,23.967,143.888,26.815,140.089,26.815z M142.311,17.484c-0.437-0.855-1.177-1.527-2.221-1.527
				c-2.224,0-2.802,2.689-2.802,4.394c0,1.018,0.098,1.95,0.579,2.877c0.437,0.879,1.229,1.551,2.274,1.551
				c1.107,0,1.871-0.793,2.288-1.734c0.348-0.817,0.439-1.878,0.439-2.733C142.868,19.285,142.776,18.406,142.311,17.484z"/>
			<path fill="#583341" d="M155.155,26.537v-1.964h1.436V19.03c0-0.596,0.024-1.085-0.161-1.686
				c-0.207-0.74-0.829-1.292-1.643-1.292c-2.243,0-2.384,2.104-2.384,3.813v4.707h1.484v1.964h-6.183v-1.964h1.621v-8.385h-1.621
				v-1.974h4.493v2.017c0.783-1.575,1.969-2.315,3.703-2.315c1.897,0,3.338,1.186,3.612,2.315c0.161,0.653,0.161,1.138,0.161,1.671
				v6.671h1.53v1.964H155.155z"/>
			<path fill="#583341" d="M179.975,26.537c-0.533-1.551-1.136-5.441-2.173-6.57c-0.485-0.49-1.157-0.423-1.784-0.423h-1.578v4.908
				h1.926v2.084h-7.084v-2.084h1.988V12.018h-1.988V9.953h8.008c1.412,0,2.711,0.077,3.89,0.951
				c1.107,0.816,1.573,2.247,1.573,3.568c0,2.248-1.409,3.866-3.655,4.126c1.921,0.254,2.245,0.922,2.73,2.656l0.9,3.198h1.393
				v2.084H179.975z M178.589,12.46c-0.56-0.418-1.391-0.418-2.063-0.418h-2.087v5.417h1.621c0.932,0,1.902-0.067,2.617-0.72
				c0.651-0.581,0.857-1.359,0.857-2.2C179.535,13.781,179.187,12.945,178.589,12.46z"/>
			<path fill="#583341" d="M193.538,26.537v-1.964c-0.696,1.542-2.176,2.243-3.842,2.243c-1.715,0-3.374-0.975-3.655-2.243
				c-0.255-0.812-0.278-1.234-0.278-1.604c0-1.037,0.415-2.084,1.205-2.771c0.603-0.562,1.988-1.047,2.802-1.071
				c0.579-0.019,1.201-0.11,1.784-0.11c0.548,0,1.107,0.067,1.659,0.091c0.163-1.484-0.043-3.333-1.964-3.333
				c-1.342,0-1.993,0.922-1.969,2.219h-3.052c0.067-3.011,2.317-4.077,5.021-4.077c1.921,0,3.729,0.514,4.563,2.411
				c0.185,0.413,0.23,0.672,0.298,1.157c0.074,0.533,0.094,1.042,0.094,1.575v5.528h1.597v1.95H193.538z M191.852,20.845
				c-1.573,0-3.009,0.37-3.009,2.233c0,0.956,0.629,1.72,1.618,1.72c2.248,0,2.776-2.156,2.85-3.953H191.852z"/>
			<path fill="#583341" d="M199.466,26.537v-1.964h1.64v-8.385h-1.64v-1.974h4.723v10.359h1.434v1.964H199.466z M201.106,12.345
				V9.521h3.083v2.824H201.106z"/>
			<path fill="#583341" d="M207.525,26.537v-1.964h1.573V11.648h-1.573V9.679h4.649v14.893h1.489v1.964H207.525z"/>
			<path fill="#583341" d="M224.678,25.288c-0.555,0.759-1.895,1.527-3.636,1.527c-1.155,0-2.411-0.533-3.028-1.527v1.249h-2.229
				v-4.284h2.411c0.094,1.532,0.764,2.593,2.406,2.593c0.857,0,1.738-0.605,1.738-1.532c0-0.461-0.142-1.013-0.603-1.249
				c-1.393-0.672-3.076-0.504-4.399-1.383c-1.134-0.792-1.573-1.854-1.573-3.222c-0.118-1.018,0.485-1.758,0.807-2.224
				c0.466-0.648,1.991-1.321,3.427-1.321c1.066,0,2.272,0.471,2.92,1.321v-1.023h2.173v3.962h-2.267
				c-0.137-1.316-0.627-2.401-2.108-2.401c-0.994,0-1.919,0.432-1.919,1.571c0,0.394,0.118,0.648,0.367,0.946
				c0.211,0.163,0.466,0.235,0.696,0.355c1.316,0.37,3.792,0.548,4.721,1.705c0.629,0.763,0.853,1.489,0.853,2.459
				C225.468,23.525,225.139,24.635,224.678,25.288z"/>
		</g>
	</g>
	<g>
		<polygon fill="#583341" stroke="#583341" stroke-miterlimit="10" points="47.572,7.125 30.575,2.293 13.584,7.125 6.293,19.198 
			13.584,31.277 30.575,36.108 47.572,31.277 54.86,19.198 		"/>
		<polygon fill="#FFFFFF" stroke="#583341" stroke-miterlimit="10" points="37.482,7.336 47.039,12.282 47.039,18.737 
			47.029,18.737 46.991,18.963 37.482,23.895 23.669,23.895 14.165,18.972 14.129,18.737 14.117,18.737 14.117,12.282 23.669,7.336 
					"/>
		<path fill="#583341" stroke="#583341" stroke-miterlimit="10" d="M30.575,35.061"/>
		<path fill="#583341" stroke="#583341" stroke-miterlimit="10" d="M30.575,35.061"/>
		<polygon fill="#FFFFFF" points="9.259,19.822 13.238,19.779 14.595,28.664 		"/>
		<polygon fill="#FFFFFF" points="16.425,29.778 23.494,25.125 29.173,33.409 		"/>
		<polygon fill="#FFFFFF" points="31.988,33.409 37.662,25.125 44.731,29.778 		"/>
		<polygon fill="#FFFFFF" points="46.561,28.664 47.913,19.779 51.897,19.822 		"/>
	</g>
</g>
</svg>
